<?xml version="1.0"?>
<svg xmlns="http://www.w3.org/2000/svg" viewBox="0 0 325.76 217.17" width="325.76" height="217.17"><defs><style>.cls-1{fill:none;stroke:#fff;stroke-width:8.14px;}.cls-2{fill:#ff5e3c;}.cls-3{fill:#fff;}</style></defs><g id="Layer_2" data-name="Layer 2"><g id="Layer_1-2" data-name="Layer 1"><path class="cls-1" d="M304,4.07H21.72A17.65,17.65,0,0,0,4.07,21.72V129.44a17.65,17.65,0,0,0,17.65,17.65H304a17.65,17.65,0,0,0,17.64-17.65V21.72A17.65,17.65,0,0,0,304,4.07Z"/><path class="cls-2" d="M74.59,27H34.89A10.86,10.86,0,0,0,24,37.85v75.46a10.86,10.86,0,0,0,10.86,10.86h39.7a10.86,10.86,0,0,0,10.85-10.86V37.85A10.86,10.86,0,0,0,74.59,27Z"/><path class="cls-3" d="M64.7,62.76a10.31,10.31,0,0,0-4-3.08A10.65,10.65,0,0,0,56,58.48a14.6,14.6,0,0,0-2.43.21,5.8,5.8,0,0,0-2.16.84,5.31,5.31,0,0,0-1.66,1.55,4.8,4.8,0,0,0-.14,4.49A5.14,5.14,0,0,0,51.1,67a16.19,16.19,0,0,0,2.43,1.2c.92.32,2,.68,3.12,1.05,1.67.56,3.4,1.19,5.21,1.89a19.08,19.08,0,0,1,4.93,2.67,14,14,0,0,1,3.67,4.21,11.88,11.88,0,0,1,1.46,6.18,16.38,16.38,0,0,1-1.59,7.44,14.5,14.5,0,0,1-4.17,5.12,18,18,0,0,1-6,3,25.31,25.31,0,0,1-7,1A29.34,29.34,0,0,1,42.9,99a22.15,22.15,0,0,1-8.19-5.34l7.78-8a14.75,14.75,0,0,0,4.72,3.79,13.3,13.3,0,0,0,5.9,1.48,11.57,11.57,0,0,0,2.57-.29,5.9,5.9,0,0,0,2.15-.91A4.43,4.43,0,0,0,59.36,88a5.37,5.37,0,0,0,.55-2.53,4,4,0,0,0-.69-2.38,6.32,6.32,0,0,0-2-1.76A12.68,12.68,0,0,0,54,79.89c-1.25-.47-2.68-1-4.3-1.48a41.85,41.85,0,0,1-4.65-1.82,16.42,16.42,0,0,1-4-2.67,13.7,13.7,0,0,1-2.85-4,14.41,14.41,0,0,1-1-5.75,14.19,14.19,0,0,1,1.67-7.09,14.53,14.53,0,0,1,4.37-4.84,18,18,0,0,1,6.11-2.74,26.36,26.36,0,0,1,6.87-.91,24.94,24.94,0,0,1,8.47,1.54,21.84,21.84,0,0,1,7.64,4.56Z"/><path class="cls-2" d="M146.68,27H107A10.86,10.86,0,0,0,96.13,37.85v75.46A10.86,10.86,0,0,0,107,124.17h39.7a10.86,10.86,0,0,0,10.86-10.86V37.85A10.86,10.86,0,0,0,146.68,27Z"/><path class="cls-3" d="M146.94,65.15a15.53,15.53,0,0,1-1.6,7.37,13.26,13.26,0,0,1-4.3,4.77A18.76,18.76,0,0,1,134.79,80a31.75,31.75,0,0,1-7.36.84h-5.9V99.54H109.66V49.85h18a31.85,31.85,0,0,1,7.5.84,16.5,16.5,0,0,1,6.11,2.6,11.82,11.82,0,0,1,4.09,4.7A15.14,15.14,0,0,1,146.94,65.15Zm-11.87.07a5.43,5.43,0,0,0-.69-2.88,4.87,4.87,0,0,0-1.88-1.75,8,8,0,0,0-2.71-.84,20,20,0,0,0-3-.22h-5.21V71.25h5a17.29,17.29,0,0,0,3.19-.28,8,8,0,0,0,2.71-1,5.35,5.35,0,0,0,1.95-1.82A5.83,5.83,0,0,0,135.07,65.22Z"/><path class="cls-2" d="M218.77,27H179.08a10.86,10.86,0,0,0-10.86,10.86v75.46a10.86,10.86,0,0,0,10.86,10.86h39.69a10.86,10.86,0,0,0,10.86-10.86V37.85A10.86,10.86,0,0,0,218.77,27Z"/><path class="cls-3" d="M193.81,99.87V50.18h11.94V99.87Z"/><path class="cls-2" d="M290.87,27h-39.7a10.86,10.86,0,0,0-10.86,10.86v75.46a10.86,10.86,0,0,0,10.86,10.86h39.7a10.87,10.87,0,0,0,10.86-10.86V37.85A10.86,10.86,0,0,0,290.87,27Z"/><path class="cls-3" d="M279.73,99.87,259.94,67.38h-.2L260,99.87H248.49V50.18H262l19.71,32.43H282l-.28-32.43H293.2V99.87Z"/><path class="cls-3" d="M53.84,202.59a12.66,12.66,0,0,1-1.47,6.35A11.76,11.76,0,0,1,48.46,213a17.18,17.18,0,0,1-5.58,2.27,30.78,30.78,0,0,1-6.34.65H18.47V170.07H36.54a25.83,25.83,0,0,1,5.38.59,14.6,14.6,0,0,1,5,1.88,10.28,10.28,0,0,1,3.65,3.56A10.73,10.73,0,0,1,52,181.86a9.72,9.72,0,0,1-2,6.35,11.56,11.56,0,0,1-5.38,3.57v.13a11.15,11.15,0,0,1,3.59,1.23,9.42,9.42,0,0,1,3,2.2,9.77,9.77,0,0,1,2,3.17A10.24,10.24,0,0,1,53.84,202.59ZM41.41,183.35A3.59,3.59,0,0,0,39.62,180a9.77,9.77,0,0,0-5.19-1.11H29v9.46h5.9a7.87,7.87,0,0,0,4.74-1.23A4.4,4.4,0,0,0,41.41,183.35Zm1.47,18.21a4,4,0,0,0-2.11-3.95,12.18,12.18,0,0,0-5.64-1.11H29V207h6.15a18.3,18.3,0,0,0,2.63-.19,8.76,8.76,0,0,0,2.5-.85,4.87,4.87,0,0,0,1.86-1.62A5.05,5.05,0,0,0,42.88,201.56Z"/><path class="cls-3" d="M116.71,192.81a26,26,0,0,1-1.86,10,22.4,22.4,0,0,1-13,12.63,28.68,28.68,0,0,1-19.73,0,23.66,23.66,0,0,1-7.82-4.92,23.34,23.34,0,0,1-5.13-7.71,26,26,0,0,1-1.86-10,25.26,25.26,0,0,1,1.86-9.91,21.91,21.91,0,0,1,5.13-7.58,23.35,23.35,0,0,1,7.82-4.79,29.64,29.64,0,0,1,19.73,0,22.49,22.49,0,0,1,7.82,4.79,21.51,21.51,0,0,1,5.19,7.58A25.26,25.26,0,0,1,116.71,192.81Zm-11.73,0a15.94,15.94,0,0,0-1-5.57,12.68,12.68,0,0,0-2.69-4.4,11.25,11.25,0,0,0-4.1-2.92,13.1,13.1,0,0,0-10.51,0,12,12,0,0,0-4.1,2.92,12.68,12.68,0,0,0-2.69,4.4A17.75,17.75,0,0,0,80,198.58a13.94,13.94,0,0,0,2.63,4.47,12.68,12.68,0,0,0,18.71,0,13.38,13.38,0,0,0,2.69-4.47A16.83,16.83,0,0,0,105,192.81Z"/><path class="cls-3" d="M179.55,192.81a26,26,0,0,1-1.86,10,22.4,22.4,0,0,1-13,12.63,28.68,28.68,0,0,1-19.73,0A22.08,22.08,0,0,1,132,202.79a26,26,0,0,1-1.86-10A25.26,25.26,0,0,1,132,182.9a21.91,21.91,0,0,1,5.13-7.58,23.25,23.25,0,0,1,7.82-4.79,29.64,29.64,0,0,1,19.73,0,22.49,22.49,0,0,1,7.82,4.79,21.51,21.51,0,0,1,5.19,7.58A25.26,25.26,0,0,1,179.55,192.81Zm-11.73,0a15.94,15.94,0,0,0-1-5.57,12.68,12.68,0,0,0-2.69-4.4,11.25,11.25,0,0,0-4.1-2.92,13.1,13.1,0,0,0-10.51,0,12,12,0,0,0-4.1,2.92,12.53,12.53,0,0,0-2.69,4.4,17.75,17.75,0,0,0,.06,11.34,13.94,13.94,0,0,0,2.63,4.47,12.68,12.68,0,0,0,18.71,0,13.38,13.38,0,0,0,2.69-4.47A16.83,16.83,0,0,0,167.82,192.81Z"/><path class="cls-3" d="M222.84,215.94,206,194.82h-.13v21.12H195.1V170.07h10.76v18.66h.19l16.22-18.66H236l-19.54,21.12,20.69,24.75Z"/><path class="cls-3" d="M249,215.94V170.07h11v45.87Z"/><path class="cls-3" d="M277.72,215.94V170.07h30.5v9.4H288.29v8.61h18.84V197H288.29v9.52h21.08v9.46Z"/></g></g></svg>
