<?xml version="1.0" encoding="UTF-8"?><svg id="Layer_1" xmlns="http://www.w3.org/2000/svg" width="200" height="101.98" viewBox="0 0 200 101.98"><defs><style>.cls-1{fill:#fff204;}.cls-1,.cls-2{fill-rule:evenodd;}.cls-2{fill:#ff4133;}</style></defs><path class="cls-2" d="M46.94,42.71l-2.59,4.61-.33,9.09-4.72-.08-14.06,25.06,31.37-21.2.48-1.32-8.62-.13.71-16.04-2.24.02ZM64.41,66.28l-3.81,15.09,35.14-17.17-1.82-16.55-3.9,16.12-9.98-1.57-1.14,8.96-10.49-1.65,1.77-9.38-3.66-.58h0s-2.12,6.73-2.12,6.73ZM81.29,27.29l4.23-17.24-13.3,16.99,9.07.25ZM65.64,35.44l-4.78,13.11.43-7.55,4.35-5.56ZM108.07,58.17h.01s5.76-21.25,5.76-21.25l-6.3,2.63-1.67,4.21,2.2,14.41ZM110.85,21.94L117.77,0l-18.65,21.37h1.86l-4.74,17.55,9.94-17.26,4.67.29ZM131.32,39.05l1.83-5.56.47,12.2-6.09,2.98.56-2.01h-7.42s2.38-7.48,2.38-7.48l8.27-.13ZM144.23,61.45l-6.91,16.71,13.62-16.95.27-1.79-1.7,2.01-5.29.02ZM153.94,41.43l-1.13-.75,1.96-4.75-.83,5.51ZM153.6,35.92l.65-.81-.24-9.63-3.75-3.75L199,1.4l-14.55,18.11-14.11-1.42-1.69,10.11,7.03.38-.6,2.59-4.25,5.28,1.51-7.21-16.23-2.11-1.24,8.17-1.27.62ZM163.57,36.63l6.35.97-6.19,7.7-1.7-.3,1.54-8.37ZM145.45,27.41l-3.74.19.55,7.98,3.6-.12-.4-8.05ZM71.88,51.88l2.68-16.55-5.7,16.12,3.02.43Z"/><path class="cls-1" d="M50.31,37.63l-5.22.04-.5,15.92-8.98-.18-.78-37.43,11.34-.52-.83,14.25,5.32-.1,1.05-14.37,10.22-.52-2.79,34.04,9.6-26.32,15.72.43-2.4,18.86-6.36,19.78,3.77.59-.58,4.56-10.49-1.65,1.77-9.38-3.66-.58h0s-2.37,7.53-2.37,7.53l-9.45-1.67,1.98-5.43-7.08-.14.71-17.72ZM96.8,33.86l9.94-17.26,11.42.71-14.54,21.4,3.45,23.7-10.7-1.46-1.9-18.35-4.54,17.42-10.9-1.44,11.96-42.7,10.55.43-4.74,17.55ZM74.55,30.84l-2.68,16.55-3.02-.43,5.7-16.12ZM14.6,39.31l7.89-2.35,9.2,5.19,2.19,7.29.04,6.78,1.7.03-4.63,8.97-9.94,2.74-9-5.41-3.24-6.5,10.35-3.35,2,5.57,4.32-1.23-3.44-10.29-9.02,2.7-7.96-5.56L1,31.77l5.1-8.65,9.98-3.48,10.1,4.77,1.93,5.99-10.48,3.21-1.53-4.32-4.64,1.42,3.14,8.61ZM169.4,23.73l-.74,4.46,3.38.18-.89,4.27-7.01-1.07-1.54,8.37,6.27,1.1-1.71,8.52-6.07-1.21-1.48,8.34,6.35,1.42-1.66,8.45-13.83-3.45,1.24-8.16-4.2,4.95-15.29.06-.79-20.53,4.34-13.15-4.84.14-.3-7.75,15.08-1.02,6.29,6.3.24,9.63-3.42,4.23h0s3.61,4.09,3.61,4.09l.12,7.48,4.14-27.34,12.73,1.65ZM172.59,15.28l20.43,2.23-2.28,9.24-4.33-.36-7.28,34.34-9.06-1.09,6.19-33.87-5.35-.38,1.69-10.11ZM143.42,25.91l-3.74.19.55,7.98,3.6-.12-.4-8.05ZM140.76,42.08l.51,10.25h3.43s-.41-10.31-.41-10.31l-3.53.06ZM109.32,67.04l-5.24-.57-.89,3.51,16.57.8,2.59-9.29-7.58-.24,2.38-7.49,7.22.11,2.6-9.34h-7.42s2.38-7.48,2.38-7.48l8.27-.13,2.58-9.23-19,.55-6.49,25.55,2.02,13.24Z"/></svg>