<?xml version="1.0" encoding="utf-8"?>
<!-- Generator: Adobe Illustrator 16.0.3, SVG Export Plug-In . SVG Version: 6.00 Build 0)  -->
<svg version="1.2" baseProfile="tiny" xmlns="http://www.w3.org/2000/svg" xmlns:xlink="http://www.w3.org/1999/xlink" x="0px"
	 y="0px" width="2808.922px" height="705.219px" viewBox="0 0 2808.922 705.219" xml:space="preserve">
<g id="Layer_5">
	<path fill="#FFFFFF" d="M1390.052,704.819c-33.95,0-65.069-8.25-93.36-24.761c-27.82-16.97-49.979-39.6-66.49-67.89
		c-16.02-28.77-24.039-59.88-24.039-93.36s8.02-64.37,24.039-92.659c16.511-28.761,38.67-51.391,66.49-67.9
		c28.291-16.97,59.41-25.46,93.36-25.46h3.53c25.471,0,49.049,4.01,70.73,12.031c22.158,7.54,41.729,18.38,58.709,32.529v-44.571
		h86.99v372.047h-86.99v-44.565c-16.98,14.15-36.551,25.22-58.709,33.24c-21.682,7.55-45.26,11.32-70.73,11.32 M1408.441,633.389
		c20.74,0,39.84-4.95,57.291-14.859c17.449-10.37,31.119-24.28,41.02-41.73c10.369-17.92,15.561-37.25,15.561-57.99
		c0-20.75-5.191-39.85-15.561-57.29c-9.9-17.45-23.57-31.12-41.02-41.03c-17.451-10.371-36.551-15.561-57.291-15.561
		c-20.75,0-40.08,5.19-58,15.561c-17.439,9.91-31.35,23.58-41.729,41.03c-10.37,17.44-15.56,36.54-15.56,57.29
		c0,20.74,5.189,40.07,15.56,57.99c10.38,17.45,24.29,31.36,41.729,41.73C1368.361,628.438,1387.691,633.389,1408.441,633.389"/>
	<path fill="#FFFFFF" d="M972.342,704.918l-0.133-372.047h87.832v48.111c19.811-15.56,42.44-27.35,67.9-35.37
		c25.939-8.48,51.4-12.73,76.391-12.73v82.75c-8.021-1.88-17.211-2.83-27.591-2.83c-21.22,0-40.78,4.72-58.7,14.15
		c-17.449,9.43-31.59,22.87-42.439,40.31c-10.37,16.98-15.561,37.02-15.561,60.12v177.535"/>
	<path fill="#FFFFFF" d="M754.771,704.819c-36.78,0-70.26-8.021-100.43-24.051c-30.181-16.5-53.99-38.9-71.441-67.19
		c-16.969-28.29-25.459-59.879-25.459-94.77c0-34.42,8.49-65.78,25.459-94.069c17.451-28.76,41.261-51.161,71.441-67.19
		c30.17-16.51,63.649-24.76,100.43-24.76c36.299,0,68.84,7.55,97.6,22.64c29.23,14.61,52.109,36.07,68.609,64.36
		c16.971,28.29,25.461,61.531,25.461,99.72c0,9.43-0.23,16.51-0.711,21.22H640.9c3.771,28.761,16.5,52.58,38.191,71.44
		c22.159,18.38,47.389,27.58,75.68,27.58c20.27,0,38.66-4.72,55.17-14.15c16.97-9.899,29.939-23.569,38.9-41.02h90.529
		c-12.26,37.25-34.891,66.72-67.9,88.411C838.941,694.209,800.041,704.819,754.771,704.819 M856.611,479.909
		c-4.24-24.521-15.791-44.331-34.65-59.42c-18.859-15.08-40.79-22.63-65.779-22.63c-25.461,0-48.801,7.55-70.021,22.63
		c-20.74,15.089-34.42,34.899-41.021,59.42H856.611z"/>
	<path fill="#FFFFFF" d="M2390.57,704.819c-36.771,0-70.25-8.021-100.431-24.051c-30.18-16.5-53.988-38.9-71.43-67.19
		c-16.979-28.29-25.469-59.879-25.469-94.77c0-34.42,8.49-65.78,25.469-94.069c17.441-28.76,41.25-51.161,71.43-67.19
		c30.181-16.51,63.659-24.76,100.431-24.76c36.309,0,68.851,7.55,97.61,22.64c29.23,14.61,52.101,36.07,68.601,64.36
		c16.979,28.29,25.47,61.531,25.47,99.72c0,9.43-0.24,16.51-0.711,21.22H2276.7c3.781,28.761,16.51,52.58,38.188,71.44
		c22.17,18.38,47.391,27.58,75.682,27.58c20.279,0,38.67-4.72,55.17-14.15c16.97-9.899,29.94-23.569,38.899-41.02h90.531
		c-12.25,37.25-34.89,66.72-67.9,88.411C2474.741,694.209,2435.84,704.819,2390.57,704.819 M2492.421,479.909
		c-4.24-24.521-15.791-44.331-34.66-59.42c-18.86-15.08-40.78-22.63-65.771-22.63c-25.461,0-48.801,7.55-70.021,22.63
		c-20.75,15.089-34.419,34.899-41.019,59.42H2492.421z"/>
	<path fill="#FFFFFF" d="M1979.986,704.848c-25.461,0-49.279-3.771-71.439-11.32c-21.691-8.021-41.021-19.09-57.99-33.241v44.566
		h-87V165.197h87.699v211.47c16.98-14.14,36.311-24.989,58-32.529c22.16-7.55,45.74-11.32,70.73-11.32h3.529
		c33.951,0,64.84,8.49,92.66,25.46c28.291,16.509,50.451,39.14,66.48,67.9c16.5,28.29,24.76,59.18,24.76,92.659
		c0,33.48-8.26,64.591-24.76,93.36c-16.029,28.29-38.189,50.92-66.48,67.89c-27.82,16.511-58.709,24.761-92.66,24.761
		 M1965.127,633.417c20.75,0,39.85-4.95,57.289-14.859c17.92-10.37,31.83-24.28,41.73-41.73c10.379-17.92,15.561-37.25,15.561-57.99
		c0-20.75-5.182-39.85-15.561-57.29c-9.9-17.45-23.811-31.12-41.73-41.03c-17.439-10.37-36.539-15.561-57.289-15.561
		c-20.74,0-39.84,5.19-57.281,15.561c-17.449,9.91-31.359,23.58-41.729,41.03c-9.91,17.44-14.861,36.54-14.861,57.29
		c0,20.74,4.951,40.07,14.861,57.99c10.369,17.45,24.279,31.36,41.729,41.73C1925.287,628.467,1944.387,633.417,1965.127,633.417"/>
	<g>
		<path fill="#00E054" d="M193.821,696.085l113.036-235.39l-74.613-154.54c-7.726-16.09-27.158-29.141-43.392-29.141H27.854
			c-17.488,0-27.749,10.092-27.854,24.72v0.101c-0.022,5.717,1.502,12.124,4.75,18.889l170.873,354.98
			C179.438,683.646,186.105,690.835,193.821,696.085z"/>
		<path fill="#00E054" d="M705.547,0.005H553.366c-16.229,0-35.649,13.04-43.38,29.14l-203.128,431.55h196.269
			c16.239,0,35.66-13.05,43.399-29.141l182.13-387.85C740.246,19.565,729.906,0.005,705.547,0.005z"/>
	</g>
	<path fill="#FFFFFF" d="M1737.741,654.239c0,28.16-22.82,50.979-50.98,50.979c-28.159,0-50.979-22.819-50.979-50.979
		c0-28.161,22.82-50.98,50.979-50.98C1714.921,603.259,1737.741,626.079,1737.741,654.239"/>
	<g>
		<path fill="#FFFFFF" d="M2608.053,520.527c0,58.47,13.68,103.74,41.029,135.8c27.35,32.07,69.081,48.09,125.189,48.09h34.65
			v-73.55c-41.49,0.47-70.959-8.49-88.409-26.881c-17.438-18.859-26.171-48.09-26.171-87.7V456.58h-86.289V520.527z"/>
		<polygon fill="#FFFFFF" points="2808.922,400.688 2808.922,332.788 2694.342,332.788 2694.342,165.169 2608.226,165.079 
			2608.053,332.788 2571.992,332.788 2571.992,400.688 2608.053,400.688 2608.053,463.78 2694.342,468.998 2694.342,400.688 		"/>
	</g>
	<g display="none">
		<rect x="945.534" y="-301.698" display="inline" fill="#FF0000" width="25.799" height="1323.132"/>
		<line display="inline" fill="#FF0000" x1="971.333" y1="1021.434" x2="945.534" y2="1021.434"/>
		<line display="inline" fill="#FF0000" x1="945.534" y1="-301.698" x2="971.333" y2="-301.698"/>
		<rect x="1204.456" y="-301.698" display="inline" fill="#FF0000" width="25.799" height="1323.132"/>
		<line display="inline" fill="#FF0000" x1="1203.456" y1="-301.698" x2="1229.255" y2="-301.698"/>
		<line display="inline" fill="#FF0000" x1="1229.255" y1="1021.434" x2="1203.456" y2="1021.434"/>
		<line display="inline" fill="#FF0000" x1="1659.016" y1="1021.434" x2="1633.217" y2="1021.434"/>
		<line display="inline" fill="#FF0000" x1="1633.217" y1="-301.698" x2="1659.016" y2="-301.698"/>
		<rect x="1609.217" y="-301.698" display="inline" fill="#FF0000" width="25.799" height="1323.132"/>
		<line display="inline" fill="#FF0000" x1="1786.975" y1="1021.434" x2="1761.176" y2="1021.434"/>
		<line display="inline" fill="#FF0000" x1="1761.176" y1="-301.698" x2="1786.975" y2="-301.698"/>
		<rect x="1737.176" y="-301.698" display="inline" fill="#FF0000" width="25.799" height="1323.132"/>
		<line display="inline" fill="#FF0000" x1="2216.835" y1="1021.434" x2="2191.036" y2="1021.434"/>
		<rect x="2167.036" y="-301.698" display="inline" fill="#FF0000" width="25.799" height="1323.132"/>
		<line display="inline" fill="#FF0000" x1="2191.036" y1="-301.698" x2="2216.835" y2="-301.698"/>
		<line display="inline" fill="#FF0000" x1="2632.055" y1="1021.434" x2="2606.256" y2="1021.434"/>
		<rect x="2582.256" y="-301.698" display="inline" fill="#FF0000" width="25.799" height="1323.132"/>
		<line display="inline" fill="#FF0000" x1="2606.256" y1="-301.698" x2="2632.055" y2="-301.698"/>
	</g>
	<rect x="531.642" y="-301.729" display="none" fill="#FF0000" width="25.799" height="1323.132"/>
	<rect x="505.843" y="-301.697" display="none" fill="#FF0000" width="25.799" height="1323.132"/>
	<g>
		<path fill="#FFFFFF" d="M403.105,661.135l-82.143-171.057L218.219,704.825c0.264,0.007,0.529,0.02,0.791,0.02h160.994
			C404.351,704.845,414.697,685.275,403.105,661.135z"/>
		<path display="none" fill="#FF0000" d="M216.021,709.419l2.198-4.594c-8.01-0.206-16.728-3.512-24.397-8.74h-0.006l113.037-235.39
			l14.109,29.382l2.021-4.223l-2.021,4.223l0.001,0l15.143-31.65l-23.271-11.134L183.633,717.338l23.271,11.136l11.314-23.649l0,0
			L216.021,709.419z"/>
		<path display="none" fill="#FF0000" d="M193.815,696.085h0.006c7.67,5.228,16.388,8.534,24.397,8.74l102.743-214.748
			l-14.109-29.382L193.815,696.085z"/>
		
			<rect x="150.56" y="597.451" transform="matrix(0.4316 -0.9021 0.9021 0.4316 -385.705 582.7903)" display="none" fill="#FF0000" width="238.06" height="0"/>
	</g>
</g>
<g id="Layer_6">
</g>
</svg>
